#define brightness_down_width 50
#define brightness_down_height 50
static char brightness_down_bits[] = {
  0x00, 0x00, 0x00, 0x00, 0x00, 0x00, 0x00, 0x00, 0x00, 0x00, 0x00, 0x00, 
  0x00, 0x00, 0x00, 0x00, 0x00, 0x00, 0x00, 0x00, 0x00, 0x00, 0x00, 0x00, 
  0x00, 0x00, 0x00, 0x00, 0x00, 0x00, 0x00, 0x00, 0x00, 0x00, 0x00, 0x00, 
  0x00, 0x00, 0x00, 0x00, 0x00, 0x00, 0x00, 0x00, 0x00, 0x00, 0x00, 0x00, 
  0x00, 0x00, 0x00, 0x00, 0x00, 0x00, 0x00, 0x00, 0x00, 0x00, 0x00, 0x00, 
  0x00, 0x00, 0x00, 0x00, 0x00, 0x00, 0x03, 0x00, 0x00, 0x00, 0x00, 0x00, 
  0x00, 0x03, 0x00, 0x00, 0x00, 0x00, 0x00, 0x00, 0x03, 0x00, 0x00, 0x00, 
  0x00, 0x60, 0x00, 0x03, 0x18, 0x00, 0x00, 0x00, 0xF0, 0x00, 0x00, 0x3C, 
  0x00, 0x00, 0x00, 0xF0, 0x01, 0x00, 0x3E, 0x00, 0x00, 0x00, 0xE0, 0xF1, 
  0x3F, 0x1E, 0x00, 0x00, 0x00, 0xC0, 0xF8, 0x7F, 0x0C, 0x00, 0x00, 0x00, 
  0x00, 0xFE, 0xFF, 0x01, 0x00, 0x00, 0x00, 0x00, 0x3E, 0xF0, 0x01, 0x00, 
  0x00, 0x00, 0x00, 0x0F, 0xC0, 0x03, 0x00, 0x00, 0x00, 0x80, 0x07, 0x80, 
  0x07, 0x00, 0x00, 0x00, 0x80, 0x07, 0x80, 0x07, 0x00, 0x00, 0x00, 0x80, 
  0x03, 0x00, 0x07, 0x00, 0x00, 0x00, 0x80, 0xFB, 0x7F, 0x07, 0x00, 0x00, 
  0x00, 0x9E, 0xFB, 0x7F, 0xE7, 0x01, 0x00, 0x00, 0x9E, 0xFB, 0x7F, 0xE7, 
  0x01, 0x00, 0x00, 0x80, 0xFB, 0x7F, 0x07, 0x00, 0x00, 0x00, 0x80, 0x03, 
  0x00, 0x07, 0x00, 0x00, 0x00, 0x80, 0x07, 0x80, 0x07, 0x00, 0x00, 0x00, 
  0x80, 0x07, 0x80, 0x07, 0x00, 0x00, 0x00, 0x00, 0x0F, 0xC0, 0x03, 0x00, 
  0x00, 0x00, 0x00, 0x3E, 0xF0, 0x01, 0x00, 0x00, 0x00, 0x00, 0xFE, 0xFF, 
  0x01, 0x00, 0x00, 0x00, 0xC0, 0xF8, 0x7F, 0x0C, 0x00, 0x00, 0x00, 0xE0, 
  0xF1, 0x3F, 0x1E, 0x00, 0x00, 0x00, 0xF0, 0x01, 0x00, 0x3E, 0x00, 0x00, 
  0x00, 0xF0, 0x00, 0x00, 0x3C, 0x00, 0x00, 0x00, 0x60, 0x00, 0x03, 0x18, 
  0x00, 0x00, 0x00, 0x00, 0x00, 0x03, 0x00, 0x00, 0x00, 0x00, 0x00, 0x00, 
  0x03, 0x00, 0x00, 0x00, 0x00, 0x00, 0x00, 0x03, 0x00, 0x00, 0x00, 0x00, 
  0x00, 0x00, 0x00, 0x00, 0x00, 0x00, 0x00, 0x00, 0x00, 0x00, 0x00, 0x00, 
  0x00, 0x00, 0x00, 0x00, 0x00, 0x00, 0x00, 0x00, 0x00, 0x00, 0x00, 0x00, 
  0x00, 0x00, 0x00, 0x00, 0x00, 0x00, 0x00, 0x00, 0x00, 0x00, 0x00, 0x00, 
  0x00, 0x00, 0x00, 0x00, 0x00, 0x00, 0x00, 0x00, 0x00, 0x00, 0x00, 0x00, 
  0x00, 0x00, 0x00, 0x00, 0x00, 0x00, 0x00, 0x00, 0x00, 0x00, 0x00, 0x00, 
  0x00, 0x00, };
