#define mute_width 50
#define mute_height 50
static char mute_bits[] = {
  0x00, 0x00, 0x00, 0x00, 0x00, 0x00, 0x00, 0x00, 0x00, 0x00, 0x00, 0x00, 
  0x00, 0x00, 0x00, 0x00, 0x00, 0x00, 0x00, 0x00, 0x00, 0x00, 0x00, 0x00, 
  0x00, 0x00, 0x00, 0x00, 0x00, 0x00, 0x00, 0x00, 0x00, 0x00, 0x00, 0x00, 
  0x00, 0x00, 0x00, 0x00, 0x00, 0x00, 0x00, 0x00, 0x00, 0x00, 0x00, 0x00, 
  0x00, 0x00, 0x00, 0x00, 0x00, 0x00, 0x00, 0x00, 0x00, 0x00, 0x00, 0x00, 
  0x00, 0x00, 0x00, 0x00, 0x00, 0x00, 0x00, 0x00, 0x00, 0x00, 0x00, 0x00, 
  0x60, 0x00, 0x00, 0x00, 0x00, 0x00, 0x00, 0x70, 0x00, 0x00, 0x00, 0x00, 
  0x00, 0x00, 0x78, 0x00, 0x00, 0x00, 0x00, 0x00, 0x00, 0x7C, 0x00, 0x00, 
  0x00, 0x00, 0x00, 0x00, 0x7E, 0x00, 0x00, 0x00, 0x00, 0x00, 0x00, 0x7F, 
  0x00, 0x00, 0x00, 0x00, 0x00, 0x80, 0x7F, 0x00, 0x00, 0x00, 0x00, 0x00, 
  0xC0, 0x7F, 0x00, 0x00, 0x00, 0x00, 0x00, 0xE0, 0x7F, 0xC0, 0xC0, 0x00, 
  0x00, 0x80, 0xFF, 0x7F, 0xE0, 0xE1, 0x01, 0x00, 0x80, 0xFF, 0x7F, 0xF0, 
  0xF3, 0x03, 0x00, 0x80, 0xFF, 0x7F, 0xF0, 0xFF, 0x03, 0x00, 0x80, 0xFF, 
  0x7F, 0xE0, 0xFF, 0x01, 0x00, 0x80, 0xFF, 0x7F, 0xC0, 0xFF, 0x00, 0x00, 
  0x80, 0xFF, 0x7F, 0x80, 0x7F, 0x00, 0x00, 0x80, 0xFF, 0x7F, 0x80, 0x7F, 
  0x00, 0x00, 0x80, 0xFF, 0x7F, 0xC0, 0xFF, 0x00, 0x00, 0x80, 0xFF, 0x7F, 
  0xE0, 0xFF, 0x01, 0x00, 0x80, 0xFF, 0x7F, 0xF0, 0xFF, 0x03, 0x00, 0x80, 
  0xFF, 0x7F, 0xF0, 0xF3, 0x03, 0x00, 0x80, 0xFF, 0x7F, 0xE0, 0xE1, 0x01, 
  0x00, 0x00, 0xE0, 0x7F, 0xC0, 0xC0, 0x00, 0x00, 0x00, 0xC0, 0x7F, 0x00, 
  0x00, 0x00, 0x00, 0x00, 0x80, 0x7F, 0x00, 0x00, 0x00, 0x00, 0x00, 0x00, 
  0x7F, 0x00, 0x00, 0x00, 0x00, 0x00, 0x00, 0x7E, 0x00, 0x00, 0x00, 0x00, 
  0x00, 0x00, 0x7C, 0x00, 0x00, 0x00, 0x00, 0x00, 0x00, 0x78, 0x00, 0x00, 
  0x00, 0x00, 0x00, 0x00, 0x70, 0x00, 0x00, 0x00, 0x00, 0x00, 0x00, 0x60, 
  0x00, 0x00, 0x00, 0x00, 0x00, 0x00, 0x00, 0x00, 0x00, 0x00, 0x00, 0x00, 
  0x00, 0x00, 0x00, 0x00, 0x00, 0x00, 0x00, 0x00, 0x00, 0x00, 0x00, 0x00, 
  0x00, 0x00, 0x00, 0x00, 0x00, 0x00, 0x00, 0x00, 0x00, 0x00, 0x00, 0x00, 
  0x00, 0x00, 0x00, 0x00, 0x00, 0x00, 0x00, 0x00, 0x00, 0x00, 0x00, 0x00, 
  0x00, 0x00, 0x00, 0x00, 0x00, 0x00, 0x00, 0x00, 0x00, 0x00, 0x00, 0x00, 
  0x00, 0x00, 0x00, 0x00, 0x00, 0x00, 0x00, 0x00, 0x00, 0x00, 0x00, 0x00, 
  0x00, 0x00, };
