#define next_width 50
#define next_height 50
static char next_bits[] = {
  0x00, 0x00, 0x00, 0x00, 0x00, 0x00, 0x00, 0x00, 0x00, 0x00, 0x00, 0x00, 
  0x00, 0x00, 0x00, 0x00, 0x00, 0x00, 0x00, 0x00, 0x00, 0x00, 0x00, 0x00, 
  0x00, 0x00, 0x00, 0x00, 0x00, 0x00, 0x00, 0x00, 0x00, 0x00, 0x00, 0x00, 
  0x00, 0x00, 0x00, 0x00, 0x00, 0x00, 0x00, 0x00, 0x00, 0x00, 0x00, 0x00, 
  0x00, 0x00, 0x00, 0x00, 0x00, 0x00, 0x00, 0x00, 0x00, 0x00, 0x00, 0x00, 
  0x00, 0x00, 0x00, 0x00, 0x00, 0x00, 0x00, 0x00, 0x00, 0x00, 0x00, 0x00, 
  0x00, 0x00, 0x00, 0x00, 0x00, 0x00, 0x00, 0x00, 0x00, 0x00, 0x00, 0x00, 
  0x00, 0x00, 0x02, 0xC0, 0x01, 0x00, 0x00, 0x00, 0x00, 0x06, 0xC0, 0x01, 
  0x00, 0x00, 0x00, 0x00, 0x0E, 0xC0, 0x01, 0x00, 0x00, 0x00, 0x00, 0x1E, 
  0xC0, 0x01, 0x00, 0x00, 0x00, 0x00, 0x3E, 0xC0, 0x01, 0x00, 0x00, 0x00, 
  0x00, 0x7E, 0xC0, 0x01, 0x00, 0x00, 0x00, 0x00, 0xFE, 0xC0, 0x01, 0x00, 
  0x00, 0x00, 0x00, 0xFE, 0xC1, 0x01, 0x00, 0x00, 0x00, 0x00, 0xFE, 0xC3, 
  0x01, 0x00, 0x00, 0x00, 0x00, 0xFE, 0xC7, 0x01, 0x00, 0x00, 0x00, 0x00, 
  0xFE, 0xCF, 0x01, 0x00, 0x00, 0x00, 0x00, 0xFE, 0xDF, 0x01, 0x00, 0x00, 
  0x00, 0x00, 0xFE, 0xFF, 0x01, 0x00, 0x00, 0x00, 0x00, 0xFE, 0xFF, 0x01, 
  0x00, 0x00, 0x00, 0x00, 0xFE, 0xDF, 0x01, 0x00, 0x00, 0x00, 0x00, 0xFE, 
  0xCF, 0x01, 0x00, 0x00, 0x00, 0x00, 0xFE, 0xC7, 0x01, 0x00, 0x00, 0x00, 
  0x00, 0xFE, 0xC3, 0x01, 0x00, 0x00, 0x00, 0x00, 0xFE, 0xC1, 0x01, 0x00, 
  0x00, 0x00, 0x00, 0xFE, 0xC0, 0x01, 0x00, 0x00, 0x00, 0x00, 0x7E, 0xC0, 
  0x01, 0x00, 0x00, 0x00, 0x00, 0x3E, 0xC0, 0x01, 0x00, 0x00, 0x00, 0x00, 
  0x1E, 0xC0, 0x01, 0x00, 0x00, 0x00, 0x00, 0x0E, 0xC0, 0x01, 0x00, 0x00, 
  0x00, 0x00, 0x06, 0xC0, 0x01, 0x00, 0x00, 0x00, 0x00, 0x02, 0xC0, 0x01, 
  0x00, 0x00, 0x00, 0x00, 0x00, 0x00, 0x00, 0x00, 0x00, 0x00, 0x00, 0x00, 
  0x00, 0x00, 0x00, 0x00, 0x00, 0x00, 0x00, 0x00, 0x00, 0x00, 0x00, 0x00, 
  0x00, 0x00, 0x00, 0x00, 0x00, 0x00, 0x00, 0x00, 0x00, 0x00, 0x00, 0x00, 
  0x00, 0x00, 0x00, 0x00, 0x00, 0x00, 0x00, 0x00, 0x00, 0x00, 0x00, 0x00, 
  0x00, 0x00, 0x00, 0x00, 0x00, 0x00, 0x00, 0x00, 0x00, 0x00, 0x00, 0x00, 
  0x00, 0x00, 0x00, 0x00, 0x00, 0x00, 0x00, 0x00, 0x00, 0x00, 0x00, 0x00, 
  0x00, 0x00, 0x00, 0x00, 0x00, 0x00, 0x00, 0x00, 0x00, 0x00, 0x00, 0x00, 
  0x00, 0x00, };
