#define pause_width 50
#define pause_height 50
static char pause_bits[] = {
  0x00, 0x00, 0x00, 0x00, 0x00, 0x00, 0x00, 0x00, 0x00, 0x00, 0x00, 0x00, 
  0x00, 0x00, 0x00, 0x00, 0x00, 0x00, 0x00, 0x00, 0x00, 0x00, 0x00, 0x00, 
  0x00, 0x00, 0x00, 0x00, 0x00, 0x00, 0x00, 0x00, 0x00, 0x00, 0x00, 0x00, 
  0x00, 0x00, 0x00, 0x00, 0x00, 0x00, 0x00, 0x00, 0x00, 0x00, 0x00, 0x00, 
  0x00, 0x00, 0x00, 0x00, 0x00, 0x00, 0x00, 0x00, 0x00, 0x00, 0x00, 0x00, 
  0x00, 0x00, 0x00, 0x00, 0x00, 0x00, 0x00, 0x00, 0x00, 0x00, 0x00, 0x00, 
  0x00, 0x00, 0x00, 0x00, 0x00, 0x00, 0x00, 0x00, 0x00, 0x00, 0x00, 0x00, 
  0x00, 0x80, 0xFF, 0xFC, 0x07, 0x00, 0x00, 0x00, 0x80, 0xFF, 0xFC, 0x07, 
  0x00, 0x00, 0x00, 0x80, 0xFF, 0xFC, 0x07, 0x00, 0x00, 0x00, 0x80, 0xFF, 
  0xFC, 0x07, 0x00, 0x00, 0x00, 0x80, 0xFF, 0xFC, 0x07, 0x00, 0x00, 0x00, 
  0x80, 0xFF, 0xFC, 0x07, 0x00, 0x00, 0x00, 0x80, 0xFF, 0xFC, 0x07, 0x00, 
  0x00, 0x00, 0x80, 0xFF, 0xFC, 0x07, 0x00, 0x00, 0x00, 0x80, 0xFF, 0xFC, 
  0x07, 0x00, 0x00, 0x00, 0x80, 0xFF, 0xFC, 0x07, 0x00, 0x00, 0x00, 0x80, 
  0xFF, 0xFC, 0x07, 0x00, 0x00, 0x00, 0x80, 0xFF, 0xFC, 0x07, 0x00, 0x00, 
  0x00, 0x80, 0xFF, 0xFC, 0x07, 0x00, 0x00, 0x00, 0x80, 0xFF, 0xFC, 0x07, 
  0x00, 0x00, 0x00, 0x80, 0xFF, 0xFC, 0x07, 0x00, 0x00, 0x00, 0x80, 0xFF, 
  0xFC, 0x07, 0x00, 0x00, 0x00, 0x80, 0xFF, 0xFC, 0x07, 0x00, 0x00, 0x00, 
  0x80, 0xFF, 0xFC, 0x07, 0x00, 0x00, 0x00, 0x80, 0xFF, 0xFC, 0x07, 0x00, 
  0x00, 0x00, 0x80, 0xFF, 0xFC, 0x07, 0x00, 0x00, 0x00, 0x80, 0xFF, 0xFC, 
  0x07, 0x00, 0x00, 0x00, 0x80, 0xFF, 0xFC, 0x07, 0x00, 0x00, 0x00, 0x80, 
  0xFF, 0xFC, 0x07, 0x00, 0x00, 0x00, 0x80, 0xFF, 0xFC, 0x07, 0x00, 0x00, 
  0x00, 0x80, 0xFF, 0xFC, 0x07, 0x00, 0x00, 0x00, 0x80, 0xFF, 0xFC, 0x07, 
  0x00, 0x00, 0x00, 0x00, 0x00, 0x00, 0x00, 0x00, 0x00, 0x00, 0x00, 0x00, 
  0x00, 0x00, 0x00, 0x00, 0x00, 0x00, 0x00, 0x00, 0x00, 0x00, 0x00, 0x00, 
  0x00, 0x00, 0x00, 0x00, 0x00, 0x00, 0x00, 0x00, 0x00, 0x00, 0x00, 0x00, 
  0x00, 0x00, 0x00, 0x00, 0x00, 0x00, 0x00, 0x00, 0x00, 0x00, 0x00, 0x00, 
  0x00, 0x00, 0x00, 0x00, 0x00, 0x00, 0x00, 0x00, 0x00, 0x00, 0x00, 0x00, 
  0x00, 0x00, 0x00, 0x00, 0x00, 0x00, 0x00, 0x00, 0x00, 0x00, 0x00, 0x00, 
  0x00, 0x00, 0x00, 0x00, 0x00, 0x00, 0x00, 0x00, 0x00, 0x00, 0x00, 0x00, 
  0x00, 0x00, };
