#define prev_width 50
#define prev_height 50
static char prev_bits[] = {
  0x00, 0x00, 0x00, 0x00, 0x00, 0x00, 0x00, 0x00, 0x00, 0x00, 0x00, 0x00, 
  0x00, 0x00, 0x00, 0x00, 0x00, 0x00, 0x00, 0x00, 0x00, 0x00, 0x00, 0x00, 
  0x00, 0x00, 0x00, 0x00, 0x00, 0x00, 0x00, 0x00, 0x00, 0x00, 0x00, 0x00, 
  0x00, 0x00, 0x00, 0x00, 0x00, 0x00, 0x00, 0x00, 0x00, 0x00, 0x00, 0x00, 
  0x00, 0x00, 0x00, 0x00, 0x00, 0x00, 0x00, 0x00, 0x00, 0x00, 0x00, 0x00, 
  0x00, 0x00, 0x00, 0x00, 0x00, 0x00, 0x00, 0x00, 0x00, 0x00, 0x00, 0x00, 
  0x00, 0x00, 0x00, 0x00, 0x00, 0x00, 0x00, 0x00, 0x00, 0x00, 0x00, 0x00, 
  0x00, 0x00, 0x0E, 0x00, 0x01, 0x00, 0x00, 0x00, 0x00, 0x0E, 0x80, 0x01, 
  0x00, 0x00, 0x00, 0x00, 0x0E, 0xC0, 0x01, 0x00, 0x00, 0x00, 0x00, 0x0E, 
  0xE0, 0x01, 0x00, 0x00, 0x00, 0x00, 0x0E, 0xF0, 0x01, 0x00, 0x00, 0x00, 
  0x00, 0x0E, 0xF8, 0x01, 0x00, 0x00, 0x00, 0x00, 0x0E, 0xFC, 0x01, 0x00, 
  0x00, 0x00, 0x00, 0x0E, 0xFE, 0x01, 0x00, 0x00, 0x00, 0x00, 0x0E, 0xFF, 
  0x01, 0x00, 0x00, 0x00, 0x00, 0x8E, 0xFF, 0x01, 0x00, 0x00, 0x00, 0x00, 
  0xCE, 0xFF, 0x01, 0x00, 0x00, 0x00, 0x00, 0xEE, 0xFF, 0x01, 0x00, 0x00, 
  0x00, 0x00, 0xFE, 0xFF, 0x01, 0x00, 0x00, 0x00, 0x00, 0xFE, 0xFF, 0x01, 
  0x00, 0x00, 0x00, 0x00, 0xEE, 0xFF, 0x01, 0x00, 0x00, 0x00, 0x00, 0xCE, 
  0xFF, 0x01, 0x00, 0x00, 0x00, 0x00, 0x8E, 0xFF, 0x01, 0x00, 0x00, 0x00, 
  0x00, 0x0E, 0xFF, 0x01, 0x00, 0x00, 0x00, 0x00, 0x0E, 0xFE, 0x01, 0x00, 
  0x00, 0x00, 0x00, 0x0E, 0xFC, 0x01, 0x00, 0x00, 0x00, 0x00, 0x0E, 0xF8, 
  0x01, 0x00, 0x00, 0x00, 0x00, 0x0E, 0xF0, 0x01, 0x00, 0x00, 0x00, 0x00, 
  0x0E, 0xE0, 0x01, 0x00, 0x00, 0x00, 0x00, 0x0E, 0xC0, 0x01, 0x00, 0x00, 
  0x00, 0x00, 0x0E, 0x80, 0x01, 0x00, 0x00, 0x00, 0x00, 0x0E, 0x00, 0x01, 
  0x00, 0x00, 0x00, 0x00, 0x00, 0x00, 0x00, 0x00, 0x00, 0x00, 0x00, 0x00, 
  0x00, 0x00, 0x00, 0x00, 0x00, 0x00, 0x00, 0x00, 0x00, 0x00, 0x00, 0x00, 
  0x00, 0x00, 0x00, 0x00, 0x00, 0x00, 0x00, 0x00, 0x00, 0x00, 0x00, 0x00, 
  0x00, 0x00, 0x00, 0x00, 0x00, 0x00, 0x00, 0x00, 0x00, 0x00, 0x00, 0x00, 
  0x00, 0x00, 0x00, 0x00, 0x00, 0x00, 0x00, 0x00, 0x00, 0x00, 0x00, 0x00, 
  0x00, 0x00, 0x00, 0x00, 0x00, 0x00, 0x00, 0x00, 0x00, 0x00, 0x00, 0x00, 
  0x00, 0x00, 0x00, 0x00, 0x00, 0x00, 0x00, 0x00, 0x00, 0x00, 0x00, 0x00, 
  0x00, 0x00, };
