#define speaker_width 50
#define speaker_height 50
static char speaker_bits[] = {
  0x00, 0x00, 0x00, 0x00, 0x00, 0x00, 0x00, 0x00, 0x00, 0x00, 0x00, 0x00, 
  0x00, 0x00, 0x00, 0x00, 0x00, 0x00, 0x00, 0x00, 0x00, 0x00, 0x00, 0x00, 
  0x00, 0x00, 0x00, 0x00, 0x00, 0x00, 0x00, 0x00, 0x00, 0x00, 0x00, 0x00, 
  0x00, 0x00, 0x00, 0x00, 0x00, 0x00, 0x00, 0x00, 0x00, 0x00, 0x00, 0x00, 
  0x00, 0x00, 0x00, 0x00, 0x00, 0x00, 0x00, 0x00, 0x00, 0x00, 0x00, 0x00, 
  0x10, 0x00, 0x00, 0x00, 0x00, 0x00, 0x00, 0x38, 0x00, 0x00, 0x00, 0x00, 
  0x00, 0x00, 0x7C, 0x00, 0x00, 0x00, 0x00, 0x10, 0x00, 0x78, 0x00, 0x00, 
  0x00, 0x00, 0x18, 0x80, 0xFB, 0x00, 0x00, 0x00, 0x00, 0x1C, 0xC0, 0xF3, 
  0x00, 0x00, 0x00, 0x00, 0x1E, 0xC0, 0xE7, 0x01, 0x00, 0x00, 0x00, 0x1F, 
  0x80, 0xE7, 0x01, 0x00, 0x00, 0x80, 0x1F, 0x98, 0xEF, 0x03, 0x00, 0x00, 
  0xC0, 0x1F, 0x3C, 0xCF, 0x03, 0x00, 0x00, 0xE0, 0x1F, 0x7C, 0xDF, 0x03, 
  0x00, 0x80, 0xFF, 0x1F, 0x78, 0xDE, 0x03, 0x00, 0x80, 0xFF, 0x1F, 0x78, 
  0x9E, 0x07, 0x00, 0x80, 0xFF, 0x1F, 0xF0, 0x9E, 0x07, 0x00, 0x80, 0xFF, 
  0x1F, 0xF0, 0x9C, 0x07, 0x00, 0x80, 0xFF, 0x1F, 0xF0, 0xBC, 0x07, 0x00, 
  0x80, 0xFF, 0x1F, 0xF0, 0xBC, 0x07, 0x00, 0x80, 0xFF, 0x1F, 0xF0, 0xBC, 
  0x07, 0x00, 0x80, 0xFF, 0x1F, 0xF0, 0xBC, 0x07, 0x00, 0x80, 0xFF, 0x1F, 
  0xF0, 0x9C, 0x07, 0x00, 0x80, 0xFF, 0x1F, 0xF0, 0x9E, 0x07, 0x00, 0x80, 
  0xFF, 0x1F, 0x78, 0x9E, 0x07, 0x00, 0x80, 0xFF, 0x1F, 0x78, 0xDE, 0x03, 
  0x00, 0x00, 0xE0, 0x1F, 0x7C, 0xDF, 0x03, 0x00, 0x00, 0xC0, 0x1F, 0x3C, 
  0xCF, 0x03, 0x00, 0x00, 0x80, 0x1F, 0x98, 0xEF, 0x03, 0x00, 0x00, 0x00, 
  0x1F, 0x80, 0xE7, 0x01, 0x00, 0x00, 0x00, 0x1E, 0xC0, 0xE7, 0x01, 0x00, 
  0x00, 0x00, 0x1C, 0xC0, 0xF3, 0x00, 0x00, 0x00, 0x00, 0x18, 0x80, 0xFB, 
  0x00, 0x00, 0x00, 0x00, 0x10, 0x00, 0x78, 0x00, 0x00, 0x00, 0x00, 0x00, 
  0x00, 0x7C, 0x00, 0x00, 0x00, 0x00, 0x00, 0x00, 0x38, 0x00, 0x00, 0x00, 
  0x00, 0x00, 0x00, 0x10, 0x00, 0x00, 0x00, 0x00, 0x00, 0x00, 0x00, 0x00, 
  0x00, 0x00, 0x00, 0x00, 0x00, 0x00, 0x00, 0x00, 0x00, 0x00, 0x00, 0x00, 
  0x00, 0x00, 0x00, 0x00, 0x00, 0x00, 0x00, 0x00, 0x00, 0x00, 0x00, 0x00, 
  0x00, 0x00, 0x00, 0x00, 0x00, 0x00, 0x00, 0x00, 0x00, 0x00, 0x00, 0x00, 
  0x00, 0x00, 0x00, 0x00, 0x00, 0x00, 0x00, 0x00, 0x00, 0x00, 0x00, 0x00, 
  0x00, 0x00, };
