#define tux_width 50
#define tux_height 50
static char tux_bits[] = {
  0x00, 0x00, 0x00, 0x00, 0x00, 0x00, 0x00, 0x00, 0x00, 0x00, 0x00, 0x00, 
  0x00, 0x00, 0x00, 0x00, 0x00, 0x00, 0x00, 0x00, 0x00, 0x00, 0x00, 0x00, 
  0x00, 0x00, 0x00, 0x00, 0x00, 0x00, 0x00, 0x00, 0x00, 0x00, 0x00, 0x00, 
  0x00, 0x00, 0x00, 0x00, 0x00, 0x00, 0x00, 0x00, 0x00, 0x00, 0x00, 0x00, 
  0x00, 0x00, 0x00, 0x80, 0x0F, 0x00, 0x00, 0x00, 0x00, 0x00, 0xE0, 0x3F, 
  0x00, 0x00, 0x00, 0x00, 0x00, 0xE0, 0x3F, 0x00, 0x00, 0x00, 0x00, 0x00, 
  0xF0, 0x7F, 0x00, 0x00, 0x00, 0x00, 0x00, 0xF0, 0x7F, 0x00, 0x00, 0x00, 
  0x00, 0x00, 0xF0, 0x7F, 0x00, 0x00, 0x00, 0x00, 0x00, 0xF0, 0x7F, 0x00, 
  0x00, 0x00, 0x00, 0x00, 0xF0, 0x7F, 0x00, 0x00, 0x00, 0x00, 0x00, 0xF0, 
  0x7F, 0x00, 0x00, 0x00, 0x00, 0x00, 0x70, 0x7C, 0x00, 0x00, 0x00, 0x00, 
  0x00, 0x70, 0xFE, 0x00, 0x00, 0x00, 0x00, 0x00, 0xF0, 0xFF, 0x00, 0x00, 
  0x00, 0x00, 0x00, 0xF8, 0xF7, 0x01, 0x00, 0x00, 0x00, 0x00, 0xB8, 0xE1, 
  0x01, 0x00, 0x00, 0x00, 0x00, 0x1C, 0xE0, 0x03, 0x00, 0x00, 0x00, 0x00, 
  0x1E, 0xE0, 0x07, 0x00, 0x00, 0x00, 0x00, 0x1F, 0xC0, 0x0F, 0x00, 0x00, 
  0x00, 0x00, 0x0F, 0xC0, 0x0F, 0x00, 0x00, 0x00, 0x80, 0x0F, 0x80, 0x1F, 
  0x00, 0x00, 0x00, 0x80, 0x07, 0x80, 0x1F, 0x00, 0x00, 0x00, 0xC0, 0x07, 
  0x80, 0x1F, 0x00, 0x00, 0x00, 0xC0, 0x07, 0x00, 0x1F, 0x00, 0x00, 0x00, 
  0xC0, 0x07, 0x00, 0x1F, 0x00, 0x00, 0x00, 0xC0, 0x03, 0x80, 0x1F, 0x00, 
  0x00, 0x00, 0xC0, 0x07, 0xC0, 0x1D, 0x00, 0x00, 0x00, 0x60, 0x0F, 0xE0, 
  0x3F, 0x00, 0x00, 0x00, 0x38, 0x1E, 0x60, 0x27, 0x00, 0x00, 0x00, 0x0C, 
  0x3C, 0x60, 0x60, 0x00, 0x00, 0x00, 0x0C, 0x3C, 0x60, 0x60, 0x00, 0x00, 
  0x00, 0x0C, 0x38, 0x20, 0xC0, 0x00, 0x00, 0x00, 0x0C, 0x30, 0x30, 0xC0, 
  0x00, 0x00, 0x00, 0x0C, 0xF0, 0x3F, 0x70, 0x00, 0x00, 0x00, 0x1C, 0xE0, 
  0x3F, 0x38, 0x00, 0x00, 0x00, 0xF8, 0xF1, 0x3F, 0x0E, 0x00, 0x00, 0x00, 
  0x80, 0x3F, 0xE0, 0x07, 0x00, 0x00, 0x00, 0x00, 0x00, 0xC0, 0x01, 0x00, 
  0x00, 0x00, 0x00, 0x00, 0x00, 0x00, 0x00, 0x00, 0x00, 0x00, 0x00, 0x00, 
  0x00, 0x00, 0x00, 0x00, 0x00, 0x00, 0x00, 0x00, 0x00, 0x00, 0x00, 0x00, 
  0x00, 0x00, 0x00, 0x00, 0x00, 0x00, 0x00, 0x00, 0x00, 0x00, 0x00, 0x00, 
  0x00, 0x00, 0x00, 0x00, 0x00, 0x00, 0x00, 0x00, 0x00, 0x00, 0x00, 0x00, 
  0x00, 0x00, };
