<?xml version="1.0" encoding="UTF-8" standalone="no"?>
<!-- Generator: Adobe Illustrator 16.0.4, SVG Export Plug-In . SVG Version: 6.00 Build 0)  -->

<svg
   xmlns:dc="http://purl.org/dc/elements/1.1/"
   xmlns:cc="http://creativecommons.org/ns#"
   xmlns:rdf="http://www.w3.org/1999/02/22-rdf-syntax-ns#"
   xmlns:svg="http://www.w3.org/2000/svg"
   xmlns="http://www.w3.org/2000/svg"
   xmlns:sodipodi="http://sodipodi.sourceforge.net/DTD/sodipodi-0.dtd"
   xmlns:inkscape="http://www.inkscape.org/namespaces/inkscape"
   version="1.1"
   id="Capa_1"
   x="0px"
   y="0px"
   width="50"
   height="50"
   viewBox="0 0 50 50"
   enable-background="new 0 0 32 32"
   xml:space="preserve"
   inkscape:version="0.48.5 r10040"
   sodipodi:docname="brightness_up.svg"><metadata
     id="metadata4559"><rdf:RDF><cc:Work
         rdf:about=""><dc:format>image/svg+xml</dc:format><dc:type
           rdf:resource="http://purl.org/dc/dcmitype/StillImage" /></cc:Work></rdf:RDF></metadata><defs
     id="defs4557" /><sodipodi:namedview
     pagecolor="#ffffff"
     bordercolor="#666666"
     borderopacity="1"
     objecttolerance="10"
     gridtolerance="10"
     guidetolerance="10"
     inkscape:pageopacity="0"
     inkscape:pageshadow="2"
     inkscape:window-width="1918"
     inkscape:window-height="1047"
     id="namedview4555"
     showgrid="false"
     inkscape:zoom="8.9325748"
     inkscape:cx="-46.882973"
     inkscape:cy="20.289765"
     inkscape:window-x="0"
     inkscape:window-y="30"
     inkscape:window-maximized="0"
     inkscape:current-layer="Capa_1" /><path
     d="M 24.999,15 C 19.475,15 15,19.477 15,24.999 c 0,5.522 4.474,10 9.999,10 5.522,0 10,-4.478 10,-10 0,-5.522 -4.478,-9.999 -10,-9.999 z m 0,17.999 c -4.419,-0.009 -7.992,-3.581 -8,-8 0.008,-4.417 3.581,-7.992 8,-8 4.419,0.008 7.991,3.583 8,8 -0.009,4.419 -3.581,7.991 -8,8 z M 27,23 v -4 h -4 v 4 h -4 v 4 h 4 v 4 h 4 v -4 h 4 V 23 H 27 z M 24,9 h 2 v 4 H 24 V 9 z m 0,28 h 2 v 4 h -2 v -4 z m 12.291,0.707 -3,-3 1.416,-1.416 3,3 -1.416,1.416 z m -22.585,-25.414 3,2.999 -1.413,1.413 -3,-2.999 1.413,-1.413 z m 22.585,0 1.417,1.415 -2.999,3.002 -1.416,-1.415 2.998,-3.002 z m -22.583,25.412 -1.415,-1.416 3.001,-3 1.415,1.416 -3.001,3 z M 9,24 h 4 v 2 H 9 v -2 z m 28,0 h 4 v 2 h -4 v -2 z"
     id="path4553"
     inkscape:connector-curvature="0" /></svg>