<?xml version="1.0" encoding="UTF-8" standalone="no"?>
<!-- Created with Inkscape (http://www.inkscape.org/) -->

<svg
   xmlns:dc="http://purl.org/dc/elements/1.1/"
   xmlns:cc="http://creativecommons.org/ns#"
   xmlns:rdf="http://www.w3.org/1999/02/22-rdf-syntax-ns#"
   xmlns:svg="http://www.w3.org/2000/svg"
   xmlns="http://www.w3.org/2000/svg"
   xmlns:sodipodi="http://sodipodi.sourceforge.net/DTD/sodipodi-0.dtd"
   xmlns:inkscape="http://www.inkscape.org/namespaces/inkscape"
   width="1771.6534"
   height="1771.6534"
   id="svg3007"
   version="1.1"
   inkscape:version="0.48.5 r10040"
   sodipodi:docname="tux.svg"
   inkscape:export-filename="/home/niklas/desktop/tux.png"
   inkscape:export-xdpi="2.54"
   inkscape:export-ydpi="2.54">
  <defs
     id="defs3009" />
  <sodipodi:namedview
     id="base"
     pagecolor="#ffffff"
     bordercolor="#666666"
     borderopacity="1.0"
     inkscape:pageopacity="0.0"
     inkscape:pageshadow="2"
     inkscape:zoom="0.25316967"
     inkscape:cx="885.82672"
     inkscape:cy="998.50802"
     inkscape:document-units="px"
     inkscape:current-layer="layer1"
     showgrid="false"
     inkscape:window-width="618"
     inkscape:window-height="1017"
     inkscape:window-x="15"
     inkscape:window-y="45"
     inkscape:window-maximized="0"
     units="cm"
     height="141.4cm"
     width="50cm"
     showborder="true" />
  <metadata
     id="metadata3012">
    <rdf:RDF>
      <cc:Work
         rdf:about="">
        <dc:format>image/svg+xml</dc:format>
        <dc:type
           rdf:resource="http://purl.org/dc/dcmitype/StillImage" />
        <dc:title></dc:title>
      </cc:Work>
    </rdf:RDF>
  </metadata>
  <g
     inkscape:label="Layer 1"
     inkscape:groupmode="layer"
     id="layer1"
     transform="translate(0,719.29427)">
    <path
       inkscape:connector-curvature="0"
       style="font-size:medium;font-style:normal;font-variant:normal;font-weight:normal;font-stretch:normal;text-indent:0;text-align:start;text-decoration:none;line-height:normal;letter-spacing:normal;word-spacing:normal;text-transform:none;direction:ltr;block-progression:tb;writing-mode:lr-tb;text-anchor:start;baseline-shift:baseline;color:#000000;fill:#000000;fill-opacity:1;stroke:none;stroke-width:309;marker:none;visibility:visible;display:inline;overflow:visible;enable-background:accumulate;font-family:Bitstream Vera Sans;-inkscape-font-specification:Bitstream Vera Sans"
       d="m 911.85347,-452.99856 c -7.95703,-0.0146 -16.25669,0.31937 -24.91172,1.00942 -218.74644,17.61695 -160.73336,248.71127 -163.97998,326.09734 -3.99473,56.591865 -15.46895,101.190119 -54.3906,156.515553 -45.72711,54.37768 -110.10572,142.388657 -140.60355,234.005027 -14.39356,43.23899 -21.24292,87.31111 -14.91739,129.02244 -1.98149,1.77444 -3.86787,3.63357 -5.66158,5.54849 -13.42548,14.33289 -23.34539,31.69928 -34.39866,43.39173 -10.32671,10.30113 -25.03964,14.21933 -41.20795,20.0201 -16.17448,5.80337 -33.93283,14.35919 -44.71225,35.04408 0,0 0,0.007 -0.007,0.0102 -0.0176,0.0344 -0.0368,0.0666 -0.0551,0.10155 l 0,0 c -9.75808,18.22592 -6.85715,39.21451 -3.87697,58.66004 2.98028,19.44528 5.99733,37.82043 1.99258,50.28721 -12.80101,34.98846 -14.43534,59.19068 -5.42383,76.74609 9.03069,17.59196 27.59858,25.35679 48.58431,29.73991 41.97159,8.76619 98.81211,6.58774 143.60902,30.33057 l 3.85034,-7.26508 -3.81049,7.28672 c 47.95728,25.07338 96.5765,33.9792 135.36611,25.11938 28.1231,-6.42348 50.95238,-23.1692 62.67671,-48.93687 30.33967,-0.14919 63.63212,-12.99879 116.96252,-15.93523 36.17936,-2.91422 81.37377,12.84771 133.35851,9.96116 1.3589,5.63998 3.3255,11.06477 6.0175,16.21964 0.027,0.053 0.054,0.10544 0.082,0.15785 20.152,40.29716 57.5958,58.72914 97.4995,55.57992 39.9563,-3.15326 82.4379,-26.71338 116.7778,-67.58003 l -6.2953,-5.29055 6.3434,5.23233 c 32.7311,-39.68746 87.0593,-56.1443 123.0832,-77.87165 18.0122,-10.86398 32.6275,-24.46727 33.7568,-44.22514 1.1287,-19.74795 -10.4651,-41.87869 -37.1249,-71.47185 0,0 -0.01,-0.007 -0.01,-0.007 -0.01,-0.013 -0.021,-0.0246 -0.031,-0.0368 -8.7595,-9.89879 -12.9382,-28.24524 -17.429,-47.78252 -4.4877,-19.52538 -9.4969,-40.58781 -25.527,-54.23749 l 0,0 c -0.032,-0.0283 -0.065,-0.0536 -0.097,-0.0816 0,0 0,0 0,0 -6.3798,-5.55919 -13.0094,-9.33225 -19.6858,-11.86711 22.2868,-66.09735 13.5424,-131.91426 -8.9548,-191.3899 -27.6105,-72.99309 -75.8142,-136.595362 -112.6282,-180.104908 -41.2073,-51.976602 -81.5115,-101.324207 -80.7176,-174.208992 1.2274,-111.23805 12.2357,-317.5257 -183.50956,-317.79286 z m 26.5001,171.3731 c 11.10746,0 20.59397,3.25573 30.33872,10.32864 9.89949,7.18506 17.03134,16.17968 22.77947,28.74036 5.64169,12.24133 8.35595,24.21636 8.62214,38.42705 0,0.37257 0,0.69183 0.1065,1.06441 0.1064,14.58306 -2.39499,26.98403 -7.93032,39.65114 -3.15842,7.22794 -6.78552,13.29442 -11.1269,18.54654 -1.47384,-0.70759 -3.00457,-1.38793 -4.59215,-2.04078 l 0,0 c -11.00438,-4.71321 -19.44607,-7.71261 -26.48174,-10.15395 2.55039,-3.06565 4.67405,-6.70149 6.54145,-11.24668 2.82082,-6.8657 4.20461,-13.57195 4.47073,-21.55531 0,-0.31942 0.10645,-0.58556 0.10645,-0.95811 0.15961,-7.66396 -0.85157,-14.21049 -3.08692,-20.91663 -2.34182,-7.02538 -5.32233,-12.0815 -9.63337,-16.28613 -4.31106,-4.2048 -8.6221,-6.12067 -13.7848,-6.2805 -0.24203,-0.0146 -0.48336,-0.0146 -0.72178,-0.0146 -4.85617,0.0146 -9.07286,1.67985 -13.43549,5.33229 -4.57718,3.83221 -7.98342,8.72849 -10.80432,15.5411 -2.82079,6.81247 -4.20461,13.57175 -4.47066,21.60851 -0.0535,0.31943 -0.0535,0.58557 -0.0535,0.90485 -0.092,4.4176 0.18861,8.46448 0.86984,12.39423 -9.93643,-4.95119 -19.30028,-8.32673 -28.08837,-10.41838 -0.50097,-3.80019 -0.79074,-7.72173 -0.88326,-11.82203 l 0,-1.11781 c -0.15969,-14.52993 2.23538,-26.98401 7.82381,-39.65099 5.58846,-12.66715 12.50743,-21.76836 22.24722,-29.16633 9.73979,-7.39796 19.31989,-10.80419 30.65643,-10.91065 0.17716,0 0.35429,0 0.53059,0 z m -152.02819,12.0367 c 7.36847,0.0175 13.96187,2.47912 20.78191,7.9253 7.39799,5.9076 12.98642,13.46524 17.67004,24.10991 4.68361,10.64465 7.1851,21.28917 7.87698,33.84985 l 0,0.10573 c 0.33537,5.27537 0.29437,10.24109 -0.12148,15.05031 -1.45732,0.4142 -2.88545,0.86238 -4.28443,1.34402 -7.94506,2.73483 -14.94699,6.4619 -21.0497,10.49162 0.59676,-4.21532 0.68558,-8.49226 0.22786,-13.26098 -0.0536,-0.26614 -0.0536,-0.47901 -0.0536,-0.74502 -0.6387,-6.33354 -1.96925,-11.65583 -4.20461,-17.0314 -2.395,-5.58821 -5.05619,-9.52684 -8.56894,-12.56064 -3.18335,-2.74917 -6.19115,-4.01164 -9.50028,-3.98664 -0.34235,0 -0.68858,0.0189 -1.03782,0.0479 -3.72563,0.31909 -6.81255,2.12865 -9.73985,5.69471 -2.92725,3.5659 -4.84324,7.98344 -6.22704,13.83784 -1.38382,5.85458 -1.75638,11.6027 -1.17095,18.20225 0,0.26602 0.0536,0.47914 0.0536,0.74514 0.6386,6.38684 1.91598,11.709 4.20459,17.0847 2.34182,5.53515 5.0562,9.47362 8.56894,12.50727 0.58828,0.50807 1.17028,0.96445 1.74964,1.37219 -3.65377,2.81205 -5.39846,4.10849 -8.39255,6.30855 -1.92035,1.40908 -4.20745,3.08681 -6.86573,5.04625 -5.79717,-5.4307 -10.31963,-12.25593 -14.27382,-21.24264 -4.6836,-10.64447 -7.1851,-21.28918 -7.93023,-33.84986 l 0,-0.10574 c -0.69187,-12.56051 0.53223,-23.36485 3.99174,-34.54163 3.4595,-11.17692 8.08994,-19.26669 14.79597,-25.91976 6.70611,-6.65279 13.46549,-10.0058 21.6086,-10.43146 0.63617,-0.035 1.26666,-0.0508 1.89104,-0.0479 z m 69.14169,87.14093 c 17.12612,-0.0662 37.73511,5.54863 62.68505,21.59034 15.32538,9.96608 27.25037,10.79901 54.70991,22.55983 l 0.0329,0.0146 0.0336,0.013 c 13.21193,5.42079 20.96659,12.48651 24.75538,19.9269 3.78869,7.44055 3.88129,15.50905 0.71022,23.996925 -6.3422,16.97613 -26.58627,34.84164 -54.99441,43.7128 l -0.0269,0.0115 -0.0253,0.0116 c -13.85168,4.50039 -25.93022,14.43876 -40.17004,22.581484 -14.23941,8.142288 -30.35238,14.709592 -52.26161,13.442153 0,-1.15e-4 0,0 0,0 -18.65174,-1.087098 -29.80105,-7.419077 -39.88233,-15.521201 -10.08154,-8.102246 -18.8667,-18.280986 -31.73091,-25.834786 l -0.0329,-0.0198 -0.0337,-0.0198 c -20.72123,-11.71203 -32.03406,-25.25821 -35.5845,-37.00163 -3.55057,-11.743475 -0.21849,-21.767495 10.06244,-29.472315 11.55869,-8.66239 19.58801,-14.55476 24.93656,-18.47989 5.31333,-3.89895 7.52393,-5.36091 9.21595,-6.9856 0.009,-0.013 0.0177,-0.0185 0.0267,-0.0264 0,0 0.007,-0.013 0.007,-0.013 8.68492,-8.22083 22.52934,-23.19826 43.3983,-30.38191 7.18267,-2.47255 15.19745,-4.06777 24.16824,-4.10322 z m 119.75833,70.82827 c -7.39047,0.44066 -15.1307,4.24572 -24.1432,9.27744 -9.01258,5.031555 -19.14752,11.467975 -30.13094,17.806345 -21.96676,12.67676 -47.25331,24.80029 -72.38321,24.80029 -25.16894,0 -45.27749,-11.62406 -60.35987,-23.5761 -7.54121,-5.97605 -13.76528,-11.99549 -18.73782,-16.65211 -2.48628,-2.328455 -4.64253,-4.312895 -6.65455,-5.862905 -2.01165,-1.54999 -3.64911,-3.08692 -7.01547,-3.08692 l -0.16132,7.07366 c -0.24103,2.366915 -0.48871,2.293935 -0.39084,2.358445 0.15702,0.10313 0.93809,0.37241 1.84951,1.07446 1.47917,1.1395 3.53239,2.99702 5.96925,5.27906 4.87375,4.56412 11.34994,10.8393 19.32334,17.15778 15.94661,12.63684 38.12374,25.60189 66.17777,25.60189 28.09302,0 54.67233,-13.13083 77.06693,-26.05434 11.19719,-6.46181 21.36679,-12.91203 30.01445,-17.73987 8.64721,-4.82796 15.92276,-7.855385 20.13487,-8.106565 l -0.5589,-9.35056 z m 24.9717,33.618555 c 18.6587,73.5525503 62.057,179.790475 89.9502,231.636505 14.8262,27.50694 44.3228,85.94961 57.0668,156.36252 8.0749,-0.24739 16.9665,0.92585 26.4883,3.36133 33.32,-86.38067 -28.2548,-179.42412 -56.4114,-205.33595 -11.3676,-11.030533 -11.914,-15.97267 -6.2787,-15.739043 30.5488,27.015223 70.6526,81.351463 85.2434,142.682553 6.6531,27.96593 8.0716,57.36589 0.9331,86.3809 3.4926,1.4509 7.0396,3.02839 10.6345,4.7302 53.4847,26.04431 73.2651,48.69186 63.7545,79.60162 -3.1325,-0.10991 -6.2137,-0.0975 -9.2192,-0.0253 -0.2805,0.007 -0.5589,0.0147 -0.8382,0.0214 7.7451,-24.50118 -9.4131,-42.57209 -55.134,-63.25879 -47.4219,-20.8634 -85.2101,-18.78773 -91.5968,23.52458 -0.4087,2.21678 -0.7376,4.47565 -0.988,6.76597 -3.5429,1.23031 -7.1051,2.80113 -10.6762,4.75514 -22.2676,12.18422 -34.4216,34.29216 -41.1814,61.40767 -6.7544,27.09359 -8.6907,59.84814 -10.5547,96.66797 0,0.007 0,0.013 0,0.0191 -1.1391,18.51423 -8.7509,43.55538 -16.4709,70.07814 -77.68414,55.41341 -185.50225,79.42153 -277.04392,16.94818 -6.20379,-9.81385 -13.32033,-19.53752 -20.64561,-29.12779 -4.67781,-6.12436 -9.48309,-12.21129 -14.26044,-18.21246 9.39723,0.007 17.38493,-1.53164 23.8406,-4.45888 8.02801,-3.64022 13.66865,-9.48713 16.45923,-16.99316 5.58107,-15.01229 -0.0245,-36.18986 -17.89126,-60.3734 -17.86573,-24.18187 -48.12392,-51.47338 -92.58643,-78.74158 0,0 -0.007,0 -0.007,-0.007 -32.66465,-20.32197 -50.93265,-45.23059 -59.48327,-72.27511 -8.55144,-27.04689 -7.35241,-56.29336 -0.76175,-85.16848 12.65011,-55.42474 45.153,-109.32973 65.89168,-143.15821 5.58346,-4.10828 1.99487,7.62582 -20.99479,50.31736 -20.60385,39.03207 -59.12281,129.10938 -6.38344,199.42326 1.40938,-50.03891 13.35944,-101.07241 33.42069,-148.80817 29.22077,-66.2371 90.34005,-181.100421 95.19437,-272.648085 2.50283,1.8174 11.10342,7.62045 14.9357,9.79982 0.007,0.0116 0.0169,0.0116 0.0245,0.0129 11.21245,6.60281 19.63346,16.25463 30.54005,25.019908 10.9282,8.782631 24.58045,16.3684383 45.20626,17.5702543 l 0,0 c 24.07458,1.39309 42.42296,-6.0635673 57.45587,-14.6596923 15.0103,-8.583089 27.00162,-18.08203 38.36218,-21.78988 0.0177,-0.0116 0.0345,-0.0116 0.0512,-0.0164 24.00588,-7.50701 43.093,-20.79407 53.95478,-36.29147 z M 1152.671,343.08603 c 9.7233,-0.045 21.5021,3.19673 34.3954,8.96474 34.7014,16.02017 45.5588,29.75169 36.0852,49.92323 -7.9834,15.22178 -42.1526,39.43823 -65.5708,33.05151 -23.8971,-6.17387 -35.5529,-40.6092 -31.6677,-66.63518 2.0811,-17.67342 12.0775,-25.23567 26.7579,-25.3043 z m -39.262,47.55977 c 1.9616,31.82622 17.708,64.28549 45.5555,71.31053 30.4743,8.02924 74.4116,-18.11782 92.9625,-39.44491 3.6989,-0.14806 7.3154,-0.32932 10.8275,-0.41409 16.2725,-0.39291 29.9209,0.53599 43.8657,12.73184 l 0.048,0.0414 0.049,0.0413 c 10.7163,9.07907 15.8101,26.23664 20.2281,45.45746 4.4178,19.22087 7.9505,40.15451 21.1994,55.06746 l 0.02,0.0214 0.018,0.0214 c 25.4712,28.26535 33.6585,47.37054 32.9616,59.56478 -0.697,12.19455 -9.5262,21.24735 -25.8297,31.08051 -32.5929,19.65827 -90.3431,36.75266 -127.2295,81.43293 -32.0293,38.11645 -71.0853,59.05063 -105.4814,61.76531 -34.3962,2.71447 -64.0719,-11.56128 -81.5677,-46.67666 l -0.04,-0.0796 -0.041,-0.0783 c -10.8539,-20.64694 -6.3325,-53.23062 2.8107,-87.59996 9.1434,-34.36962 22.2801,-69.65971 24.0386,-98.343 l 0,-0.045 0,-0.0437 c 1.8603,-36.75106 3.9173,-68.84562 10.0908,-93.60917 6.1735,-24.76355 15.8943,-41.53494 33.118,-50.95935 0.8021,-0.43883 1.5983,-0.85286 2.3901,-1.2441 z m -559.32379,2.40171 c 2.57074,0.0101 5.29125,0.22504 8.1897,0.66363 19.49659,2.95333 36.49831,16.58517 52.87865,38.80283 16.38047,22.21797 31.62216,52.54702 47.29035,86.18976 l 0.02,0.0414 0.0184,0.0398 c 12.59094,26.27912 39.15993,55.1749 61.67551,84.65276 22.51546,29.47784 39.94101,59.06694 37.6718,81.71389 l -0.0101,0.0984 -0.007,0.0981 c -2.93541,38.62547 -24.7238,59.65277 -58.17115,67.29232 -33.43738,7.63701 -78.76681,0.0245 -124.04277,-23.63785 -0.013,-0.007 -0.0269,-0.013 -0.0398,-0.0214 -50.09139,-26.5305 -109.68142,-23.89534 -147.90665,-31.8789 -19.11779,-3.99306 -31.59224,-9.99605 -37.31762,-21.14972 -5.72579,-11.15329 -5.85357,-30.61237 6.31349,-63.79081 l 0.0535,-0.14646 0.0481,-0.14812 c 6.01709,-18.56053 1.56416,-38.86858 -1.35719,-57.92991 -2.92133,-19.06141 -4.34998,-36.39945 2.15887,-48.48427 l 0.0299,-0.0552 0.0297,-0.0566 c 8.33349,-16.06354 20.55695,-21.80586 35.72762,-27.24853 15.1706,-5.44296 33.15969,-9.71753 47.36511,-23.95369 l 0.0735,-0.0751 0.0734,-0.0766 c 13.13236,-13.85388 22.99681,-31.21943 34.54171,-43.54475 9.74101,-10.39943 19.48915,-17.29187 34.18251,-17.39395 0.17001,0 0.34088,0 0.51227,0 z"
       id="path154" />
    <g
       transform="matrix(0.91159133,0,0,0.91159133,-140.97298,1091.3033)"
       style="font-size:429.75283813px;font-style:normal;font-weight:normal;line-height:125%;letter-spacing:0px;word-spacing:0px;fill:#000000;fill-opacity:1;stroke:none;font-family:Sans"
       id="text2999" />
  </g>
</svg>
